<svg width="25" height="25" viewBox="0 0 25 25" fill="none" xmlns="http://www.w3.org/2000/svg">
<path fill-rule="evenodd" clip-rule="evenodd" d="M16.6649 3.27467H8.66486C5.90344 3.27467 3.66486 5.51325 3.66486 8.27467V16.2747C3.66486 19.0361 5.90344 21.2747 8.66486 21.2747H16.6649C19.4263 21.2747 21.6649 19.0361 21.6649 16.2747V8.27467C21.6649 5.51325 19.4263 3.27467 16.6649 3.27467ZM19.9149 16.2747C19.9094 18.0673 18.4575 19.5192 16.6649 19.5247H8.66486C6.87221 19.5192 5.42035 18.0673 5.41486 16.2747V8.27467C5.42035 6.48202 6.87221 5.03016 8.66486 5.02467H16.6649C18.4575 5.03016 19.9094 6.48202 19.9149 8.27467V16.2747ZM17.4149 8.52467C17.9672 8.52467 18.4149 8.07695 18.4149 7.52467C18.4149 6.97239 17.9672 6.52467 17.4149 6.52467C16.8626 6.52467 16.4149 6.97239 16.4149 7.52467C16.4149 8.07695 16.8626 8.52467 17.4149 8.52467ZM12.6649 7.77467C10.1796 7.77467 8.16486 9.78939 8.16486 12.2747C8.16486 14.76 10.1796 16.7747 12.6649 16.7747C15.1502 16.7747 17.1649 14.76 17.1649 12.2747C17.1676 11.0804 16.6943 9.93424 15.8498 9.08975C15.0053 8.24526 13.8592 7.77201 12.6649 7.77467ZM9.91486 12.2747C9.91486 13.7935 11.1461 15.0247 12.6649 15.0247C14.1837 15.0247 15.4149 13.7935 15.4149 12.2747C15.4149 10.7559 14.1837 9.52467 12.6649 9.52467C11.1461 9.52467 9.91486 10.7559 9.91486 12.2747Z" fill="#F7FFFB"/>
</svg>
