<svg width="25" height="25" viewBox="0 0 25 25" fill="none" xmlns="http://www.w3.org/2000/svg">
<path d="M22.2579 7.23499C22.144 6.81239 21.9214 6.42699 21.6122 6.11716C21.3031 5.80732 20.9182 5.58385 20.4959 5.46899C18.9299 5.03899 12.6649 5.03199 12.6649 5.03199C12.6649 5.03199 6.40088 5.02499 4.83388 5.43599C4.41181 5.55614 4.0277 5.78277 3.71845 6.09412C3.40919 6.40548 3.18517 6.79111 3.06788 7.21399C2.65488 8.77999 2.65088 12.028 2.65088 12.028C2.65088 12.028 2.64688 15.292 3.05688 16.842C3.28688 17.699 3.96188 18.376 4.81988 18.607C6.40188 19.037 12.6499 19.044 12.6499 19.044C12.6499 19.044 18.9149 19.051 20.4809 18.641C20.9034 18.5263 21.2886 18.3034 21.5985 17.9942C21.9084 17.685 22.1323 17.3002 22.2479 16.878C22.6619 15.313 22.6649 12.066 22.6649 12.066C22.6649 12.066 22.6849 8.80099 22.2579 7.23499ZM10.6609 15.037L10.6659 9.03699L15.8729 12.042L10.6609 15.037Z" fill="#F7FFFB"/>
</svg>
