<svg width="25" height="25" viewBox="0 0 25 25" fill="none" xmlns="http://www.w3.org/2000/svg">
<path fill-rule="evenodd" clip-rule="evenodd" d="M5.16486 3.27467C4.33643 3.27467 3.66486 3.94624 3.66486 4.77467V19.7747C3.66486 20.6031 4.33643 21.2747 5.16486 21.2747H20.1649C20.9933 21.2747 21.6649 20.6031 21.6649 19.7747V4.77467C21.6649 3.94624 20.9933 3.27467 20.1649 3.27467H5.16486ZM9.18562 7.27739C9.19125 8.23364 8.47547 8.82286 7.62609 8.81864C6.82593 8.81442 6.12843 8.17739 6.13265 7.2788C6.13687 6.43364 6.80484 5.75442 7.6725 5.77411C8.55281 5.7938 9.19125 6.43927 9.18562 7.27739ZM12.9446 10.0364H10.4246H10.4232V18.5963H13.0866V18.3966C13.0866 18.0167 13.0863 17.6367 13.086 17.2566C13.0852 16.2428 13.0843 15.2279 13.0895 14.2144C13.0909 13.9683 13.1021 13.7124 13.1654 13.4775C13.403 12.6 14.192 12.0333 15.0723 12.1726C15.6376 12.2611 16.0116 12.5888 16.1691 13.1218C16.2662 13.455 16.3098 13.8136 16.314 14.161C16.3254 15.2086 16.3238 16.2562 16.3222 17.3039C16.3216 17.6737 16.321 18.0437 16.321 18.4135V18.5949H18.9929V18.3896C18.9929 17.9376 18.9927 17.4857 18.9924 17.0338C18.9919 15.9043 18.9913 14.7748 18.9943 13.6449C18.9957 13.1344 18.9409 12.631 18.8157 12.1374C18.6287 11.4033 18.242 10.7958 17.6134 10.3571C17.1676 10.0449 16.6782 9.84377 16.1312 9.82127C16.0689 9.81868 16.0061 9.81529 15.943 9.81188C15.6633 9.79676 15.379 9.7814 15.1116 9.83533C14.3466 9.98861 13.6745 10.3388 13.1668 10.9561C13.1078 11.0269 13.0501 11.0988 12.964 11.2061L12.9446 11.2304V10.0364ZM6.3465 18.5991H8.99728V10.042H6.3465V18.5991Z" fill="#F7FFFB"/>
</svg>
