<svg width="37" height="38" viewBox="0 0 37 38" fill="none" xmlns="http://www.w3.org/2000/svg">
<path d="M36.6819 10.9597C36.6819 7.7456 33.3023 5.14229 29.1297 5.14229C24.9571 5.14229 21.5775 7.7456 21.5775 10.9597C21.5775 13.6067 23.8715 15.8391 27.0056 16.5445C26.949 17.7153 26.6091 18.617 25.9672 19.2278C24.5134 20.624 21.3132 20.8567 17.9241 21.0967C15.262 21.2857 12.5054 21.4893 10.2492 22.3256V11.8542C13.3173 11.1125 15.5357 8.90909 15.5357 6.30578C15.5357 3.09164 12.1561 0.488327 7.98353 0.488327C3.81094 0.488327 0.431335 3.09164 0.431335 6.30578C0.431335 8.90909 2.64979 11.1125 5.71787 11.8542V26.3469C2.64979 27.0959 0.431335 29.2993 0.431335 31.9026C0.431335 35.1167 3.81094 37.72 7.98353 37.72C12.1561 37.72 15.5357 35.1167 15.5357 31.9026C15.5357 29.4302 13.5344 27.3141 10.7023 26.4778C10.995 26.0997 11.4387 25.7652 12.1089 25.5034C13.6382 24.9071 15.9228 24.7471 18.3489 24.5726C22.3327 24.289 26.8451 23.9618 29.5073 21.4166C30.8289 20.1513 31.4992 18.5224 31.5464 16.4791C34.5295 15.6937 36.6819 13.5194 36.6819 10.9597ZM7.98353 5.14229C8.81427 5.14229 9.49397 5.66586 9.49397 6.30578C9.49397 6.9457 8.81427 7.46927 7.98353 7.46927C7.15279 7.46927 6.47309 6.9457 6.47309 6.30578C6.47309 5.66586 7.15279 5.14229 7.98353 5.14229ZM7.98353 33.0661C7.15279 33.0661 6.47309 32.5425 6.47309 31.9026C6.47309 31.2627 7.15279 30.7391 7.98353 30.7391C8.81427 30.7391 9.49397 31.2627 9.49397 31.9026C9.49397 32.5425 8.81427 33.0661 7.98353 33.0661ZM29.1297 9.79625C29.9604 9.79625 30.6401 10.3198 30.6401 10.9597C30.6401 11.5997 29.9604 12.1232 29.1297 12.1232C28.2989 12.1232 27.6192 11.5997 27.6192 10.9597C27.6192 10.3198 28.2989 9.79625 29.1297 9.79625Z" fill="white"/>
</svg>
